<?xml version="1.0" encoding="UTF-8" standalone="no"?>
<!-- Created with Inkscape (http://www.inkscape.org/) -->

<svg
   xmlns:dc="http://purl.org/dc/elements/1.1/"
   xmlns:cc="http://creativecommons.org/ns#"
   xmlns:rdf="http://www.w3.org/1999/02/22-rdf-syntax-ns#"
   xmlns:svg="http://www.w3.org/2000/svg"
   xmlns="http://www.w3.org/2000/svg"
   xmlns:sodipodi="http://sodipodi.sourceforge.net/DTD/sodipodi-0.dtd"
   xmlns:inkscape="http://www.inkscape.org/namespaces/inkscape"
   id="svg7420"
   sodipodi:version="0.32"
   inkscape:version="0.48.2 r9819"
   width="502.74347"
   height="230.7373"
   xml:space="preserve"
   sodipodi:docname="Cylindrical_Projection_basics3.svg"
   version="1.0"
   inkscape:output_extension="org.inkscape.output.svg.inkscape"><metadata
     id="metadata7425"><rdf:RDF><cc:Work
         rdf:about=""><dc:format>image/svg+xml</dc:format><dc:type
           rdf:resource="http://purl.org/dc/dcmitype/StillImage" /><dc:title></dc:title></cc:Work></rdf:RDF></metadata><defs
     id="defs7423"><inkscape:perspective
       sodipodi:type="inkscape:persp3d"
       inkscape:vp_x="0 : 526.18109 : 1"
       inkscape:vp_y="0 : 1000 : 0"
       inkscape:vp_z="744.09448 : 526.18109 : 1"
       inkscape:persp3d-origin="372.04724 : 350.78739 : 1"
       id="perspective7427" /></defs><sodipodi:namedview
     inkscape:window-height="949"
     inkscape:window-width="1280"
     inkscape:pageshadow="2"
     inkscape:pageopacity="0.0"
     guidetolerance="10.0"
     gridtolerance="10.0"
     objecttolerance="10.0"
     borderopacity="1.0"
     bordercolor="#666666"
     pagecolor="#ffffff"
     id="base"
     showgrid="false"
     inkscape:zoom="1.9360499"
     inkscape:cx="277.1556"
     inkscape:cy="120.74527"
     inkscape:window-x="-9"
     inkscape:window-y="-9"
     inkscape:current-layer="g7429"
     inkscape:window-maximized="1"
     fit-margin-top="0"
     fit-margin-left="0"
     fit-margin-right="0"
     fit-margin-bottom="0" /><g
     id="g7429"
     inkscape:groupmode="layer"
     inkscape:label="cylindical_projection_basic"
     transform="matrix(1.25,0,0,-1.25,-111.63153,636.3623)"><path
   d="m 190.1646,490.0625 c 0,-5.5957 -17.8687,-10.3623 -39.9874,-10.3623 -22.1186,0 -40.0498,4.5371 -40.0498,10.1328 0,5.5967 17.9312,10.1338 40.0498,10.1338 22.1187,0 39.9874,-4.3076 39.9874,-9.9043 z"
   style="fill:none;stroke:#231f20;stroke-width:1;stroke-linecap:butt;stroke-linejoin:miter;stroke-miterlimit:4;stroke-opacity:1;stroke-dasharray:none"
   id="path7431"
   inkscape:connector-curvature="0" /><path
   d="m 190.4019,359.6875 c 0,-5.5957 -17.9732,-10.1328 -40.1436,-10.1328 -22.1704,0 -40.1436,4.5391 -40.1436,10.1328"
   style="fill:none;stroke:#231f20;stroke-width:1;stroke-linecap:butt;stroke-linejoin:miter;stroke-miterlimit:4;stroke-opacity:1;stroke-dasharray:none"
   id="path7433"
   inkscape:connector-curvature="0" /><path
   d="m 110.1147,359.6875 c 0,5.5967 17.9732,10.1338 40.1436,10.1338 22.1704,0 40.1436,-4.5371 40.1436,-10.1338"
   style="fill:none;stroke:#231f20;stroke-width:1;stroke-linecap:butt;stroke-linejoin:miter;stroke-miterlimit:4;stroke-opacity:1;stroke-dasharray:2, 2;stroke-dashoffset:0"
   id="path7435"
   inkscape:connector-curvature="0" /><path
   d="M 190.165,490.6665 190.4146,359.625"
   style="fill:none;stroke:#231f20;stroke-width:1;stroke-linecap:butt;stroke-linejoin:miter;stroke-miterlimit:4;stroke-opacity:1;stroke-dasharray:none"
   id="path7437"
   inkscape:connector-curvature="0" /><path
   d="m 110.103,489.6768 0,-129.667"
   style="fill:none;stroke:#231f20;stroke-width:1;stroke-linecap:butt;stroke-linejoin:miter;stroke-miterlimit:4;stroke-opacity:1;stroke-dasharray:none"
   id="path7439"
   inkscape:connector-curvature="0" /><path
   d="m 190.2876,420 c 0,-22.2568 -17.9453,-40.2998 -40.082,-40.2998 -22.1358,0 -40.0801,18.043 -40.0801,40.2998 0,22.2568 17.9443,40.2998 40.0801,40.2998 22.1367,0 40.082,-18.043 40.082,-40.2998 z"
   style="fill:none;stroke:#231f20;stroke-width:1;stroke-linecap:butt;stroke-linejoin:miter;stroke-miterlimit:4;stroke-opacity:1;stroke-dasharray:2, 2;stroke-dashoffset:0"
   id="path7441"
   inkscape:connector-curvature="0" /><path
   d="m 190.2778,420 c 0,-5.5957 -17.9658,-10.1328 -40.1279,-10.1328 -22.1621,0 -40.1406,4.7363 -40.1406,10.332"
   style="fill:none;stroke:#231f20;stroke-width:1;stroke-linecap:butt;stroke-linejoin:miter;stroke-miterlimit:4;stroke-opacity:1;stroke-dasharray:none"
   id="path7443"
   inkscape:connector-curvature="0" /><path
   d="m 110.022,420 c 0,5.5957 17.9658,10.1328 40.1279,10.1328 22.1621,0 40.1279,-4.5371 40.1279,-10.1328"
   style="fill:none;stroke:#231f20;stroke-width:1;stroke-linecap:butt;stroke-linejoin:miter;stroke-miterlimit:4;stroke-opacity:1;stroke-dasharray:2, 2;stroke-dashoffset:0"
   id="path7445"
   inkscape:connector-curvature="0" /><path
   d="m 149.9771,379.6875 c -13.667,0 -24.5596,18.2207 -24.5596,40.478 0,22.2578 11.082,40.2998 24.7471,40.2998"
   style="fill:none;stroke:#231f20;stroke-width:1;stroke-linecap:butt;stroke-linejoin:miter;stroke-miterlimit:4;stroke-opacity:1;stroke-dasharray:2, 2;stroke-dashoffset:0"
   id="path7447"
   inkscape:connector-curvature="0" /><path
   d="M 171.3789,399.4004 C 167.0488,387.6943 159.168,379.8652 150.1646,379.8652"
   style="fill:none;stroke:#231f20;stroke-width:1;stroke-linecap:butt;stroke-linejoin:miter;stroke-miterlimit:4;stroke-opacity:1;stroke-dasharray:2, 2;stroke-dashoffset:0"
   id="path7449"
   inkscape:connector-curvature="0" /><path
   d="m 150.1646,460.4653 c 13.6679,0 24.748,-18.0429 24.748,-40.2998 0,-7.5962 -1.2905,-14.7007 -3.5337,-20.7651"
   style="fill:none;stroke:#231f20;stroke-width:1;stroke-linecap:butt;stroke-linejoin:miter;stroke-miterlimit:4;stroke-opacity:1;stroke-dasharray:2, 2;stroke-dashoffset:0"
   id="path7451"
   inkscape:connector-curvature="0" /><path
   d="m 150.1646,368.333 0,-7.333 24.625,-9.375"
   style="fill:none;stroke:#231f20;stroke-width:1;stroke-linecap:butt;stroke-linejoin:miter;stroke-miterlimit:4;stroke-opacity:1;stroke-dasharray:2, 2;stroke-dashoffset:0"
   id="path7453"
   inkscape:connector-curvature="0" /><path
   d="m 150.1646,380.333 0,14"
   style="fill:none;stroke:#231f20;stroke-width:1;stroke-linecap:butt;stroke-linejoin:miter;stroke-miterlimit:4;stroke-opacity:1;stroke-dasharray:2, 2;stroke-dashoffset:0"
   id="path7455"
   inkscape:connector-curvature="0" /><path
   d="m 150.1646,435.4995 0,-40.1665"
   style="fill:none;stroke:#231f20;stroke-width:1;stroke-linecap:butt;stroke-linejoin:miter;stroke-miterlimit:4;stroke-opacity:1;stroke-dasharray:2, 2;stroke-dashoffset:0"
   id="path7457"
   inkscape:connector-curvature="0" /><path
   d="m 150.1646,456.25 0,3.25"
   style="fill:none;stroke:#231f20;stroke-width:1;stroke-linecap:butt;stroke-linejoin:miter;stroke-miterlimit:4;stroke-opacity:1;stroke-dasharray:2, 2;stroke-dashoffset:0"
   id="path7459"
   inkscape:connector-curvature="0" /><path
   d="m 150.2002,478 -0.0356,-41.7998"
   style="fill:none;stroke:#231f20;stroke-width:1;stroke-linecap:butt;stroke-linejoin:miter;stroke-miterlimit:4;stroke-opacity:1;stroke-dasharray:2, 2;stroke-dashoffset:0"
   id="path7461"
   inkscape:connector-curvature="0" /><path
   d="M 128.2354,412.6982 149.9146,420 c 0.25,-2.5 24.5,-8.25 24.5,-8.25"
   style="fill:none;stroke:#231f20;stroke-width:1;stroke-linecap:butt;stroke-linejoin:miter;stroke-miterlimit:4;stroke-opacity:1;stroke-dasharray:2, 2;stroke-dashoffset:0"
   id="path7463"
   inkscape:connector-curvature="0" /><path
   d="m 101.6646,403.75 24.333,8.083"
   style="fill:none;stroke:#231f20;stroke-width:1;stroke-linecap:butt;stroke-linejoin:miter;stroke-miterlimit:4;stroke-opacity:1;stroke-dasharray:none"
   id="path7465"
   inkscape:connector-curvature="0" /><path
   d="m 149.9146,420 21.5625,20.5"
   style="fill:none;stroke:#231f20;stroke-width:1;stroke-linecap:butt;stroke-linejoin:miter;stroke-miterlimit:4;stroke-opacity:1;stroke-dasharray:2, 2;stroke-dashoffset:0"
   id="path7467"
   inkscape:connector-curvature="0" /><path
   d="m 156.731,416.3096 c 0.2812,0.7666 0.4336,1.5967 0.4336,2.4638 0,2.2408 -1.0235,4.2373 -2.6192,5.5288"
   style="fill:none;stroke:#231f20;stroke-width:1;stroke-linecap:butt;stroke-linejoin:miter;stroke-miterlimit:4;stroke-opacity:1;stroke-dasharray:none"
   id="path7469"
   inkscape:connector-curvature="0" /><path
   d="m 142.6021,417.125 c 1.144,-1.4561 4.289,-2.5146 6.729,-2.458 2.6875,0.0625 6.2085,1.333 6.9585,2.0205"
   style="fill:none;stroke:#231f20;stroke-width:1;stroke-linecap:butt;stroke-linejoin:miter;stroke-miterlimit:4;stroke-opacity:1;stroke-dasharray:none"
   id="path7471"
   inkscape:connector-curvature="0" /><path
   d="m 174.6646,481.3999 0.0209,-129.0454"
   style="fill:none;stroke:#231f20;stroke-width:1;stroke-linecap:butt;stroke-linejoin:miter;stroke-miterlimit:4;stroke-opacity:1;stroke-dasharray:none"
   id="path7473"
   inkscape:connector-curvature="0" /><path
   d="m 125.498,490.3335 0,-156.4331"
   style="fill:none;stroke:#231f20;stroke-width:1;stroke-linecap:butt;stroke-linejoin:miter;stroke-miterlimit:4;stroke-opacity:1;stroke-dasharray:none"
   id="path7475"
   inkscape:connector-curvature="0" /><path
   d="m 124.5742,492.6963 c -0.4487,-1.4873 -0.8628,-2.4551 -1.3423,-3.6484 l 4.5401,0 c -0.2032,0.4277 -0.8946,2.1611 -1.3428,3.6484 -0.481,1.5933 -0.8096,3.0371 -0.9277,3.9736 -0.1182,-0.9365 -0.4463,-2.3803 -0.9273,-3.9736 z"
   style="fill:#231f20;fill-opacity:1;fill-rule:nonzero;stroke:none"
   id="path7477"
   inkscape:connector-curvature="0" /><path
   d="m 139.5024,410.085 -1.125,0"
   style="fill:none;stroke:#231f20;stroke-width:1;stroke-linecap:butt;stroke-linejoin:miter;stroke-miterlimit:4;stroke-opacity:1;stroke-dasharray:none"
   id="path7479"
   inkscape:connector-curvature="0" /><path
   d="m 141.6279,411.0078 c -1.4878,0.4483 -2.455,0.8613 -3.6489,1.3418 l 0,-4.541 c 0.4277,0.2041 2.1611,0.8955 3.6489,1.3428 1.5933,0.4824 3.0367,0.8105 3.9732,0.9277 -0.9365,0.1191 -2.3799,0.4473 -3.9732,0.9287 z"
   style="fill:#231f20;fill-opacity:1;fill-rule:nonzero;stroke:none"
   id="path7481"
   inkscape:connector-curvature="0" /><path
   d="m 171.8311,440.583 c 0,-0.2764 -0.2237,-0.5 -0.5,-0.5 -0.2764,0 -0.5,0.2236 -0.5,0.5 0,0.2764 0.2236,0.5 0.5,0.5 0.2763,0 0.5,-0.2236 0.5,-0.5 z"
   style="fill:#231f20;fill-opacity:1;fill-rule:nonzero;stroke:#231f20;stroke-width:1;stroke-linecap:butt;stroke-linejoin:miter;stroke-miterlimit:4;stroke-opacity:1;stroke-dasharray:none"
   id="path7483"
   inkscape:connector-curvature="0" /><path
   d="m 446.1641,480 0,-120"
   style="fill:none;stroke:#d74424;stroke-width:0.5;stroke-linecap:butt;stroke-linejoin:miter;stroke-miterlimit:4;stroke-opacity:1;stroke-dasharray:4, 2;stroke-dashoffset:0"
   id="path7485"
   inkscape:connector-curvature="0" /><path
   d="m 266.1646,479.75 0,-119.75"
   style="fill:none;stroke:#d74424;stroke-width:0.5;stroke-linecap:butt;stroke-linejoin:miter;stroke-miterlimit:4;stroke-opacity:1;stroke-dasharray:4, 2;stroke-dashoffset:0"
   id="path7487"
   inkscape:connector-curvature="0" /><path
   d="m 246.6646,479.75 0,-119.75"
   style="fill:none;stroke:#d74424;stroke-width:0.5;stroke-linecap:butt;stroke-linejoin:miter;stroke-miterlimit:4;stroke-opacity:1;stroke-dasharray:4, 2;stroke-dashoffset:0"
   id="path7489"
   inkscape:connector-curvature="0" /><path
   d="m 286.6646,479.75 0,-119.75"
   style="fill:none;stroke:#d74424;stroke-width:0.5;stroke-linecap:butt;stroke-linejoin:miter;stroke-miterlimit:4;stroke-opacity:1;stroke-dasharray:4, 2;stroke-dashoffset:0"
   id="path7491"
   inkscape:connector-curvature="0" /><path
   d="m 306.248,480 0,-120"
   style="fill:none;stroke:#d74424;stroke-width:0.5;stroke-linecap:butt;stroke-linejoin:miter;stroke-miterlimit:4;stroke-opacity:1;stroke-dasharray:4, 2;stroke-dashoffset:0"
   id="path7493"
   inkscape:connector-curvature="0" /><path
   d="m 346.248,495.75 0,-135.75"
   style="fill:none;stroke:#231f20;stroke-width:1;stroke-linecap:butt;stroke-linejoin:miter;stroke-miterlimit:4;stroke-opacity:1;stroke-dasharray:none"
   id="path7495"
   inkscape:connector-curvature="0" /><path
   d="m 345.3242,497.1128 c -0.4492,-1.4878 -0.8633,-2.4551 -1.3418,-3.6489 l 4.5391,0 c -0.2031,0.4277 -0.8945,2.1611 -1.3418,3.6489 -0.4824,1.5933 -0.8106,3.0366 -0.9277,3.9731 -0.1192,-0.9365 -0.4473,-2.3798 -0.9278,-3.9731 z"
   style="fill:#231f20;fill-opacity:1;fill-rule:nonzero;stroke:none"
   id="path7497"
   inkscape:connector-curvature="0" /><path
   d="m 326.748,479.75 0,-119.75"
   style="fill:none;stroke:#d74424;stroke-width:0.5;stroke-linecap:butt;stroke-linejoin:miter;stroke-miterlimit:4;stroke-opacity:1;stroke-dasharray:4, 2;stroke-dashoffset:0"
   id="path7499"
   inkscape:connector-curvature="0" /><path
   d="m 366.748,479.75 0,-119.75"
   style="fill:none;stroke:#d74424;stroke-width:0.5;stroke-linecap:butt;stroke-linejoin:miter;stroke-miterlimit:4;stroke-opacity:1;stroke-dasharray:4, 2;stroke-dashoffset:0"
   id="path7501"
   inkscape:connector-curvature="0" /><path
   d="m 386.248,480 0,-120"
   style="fill:none;stroke:#d74424;stroke-width:0.5;stroke-linecap:butt;stroke-linejoin:miter;stroke-miterlimit:4;stroke-opacity:1;stroke-dasharray:4, 2;stroke-dashoffset:0"
   id="path7503"
   inkscape:connector-curvature="0" /><path
   d="m 426.248,479.75 0,-119.75"
   style="fill:none;stroke:#d74424;stroke-width:0.5;stroke-linecap:butt;stroke-linejoin:miter;stroke-miterlimit:4;stroke-opacity:1;stroke-dasharray:4, 2;stroke-dashoffset:0"
   id="path7505"
   inkscape:connector-curvature="0" /><path
   d="m 406.748,479.75 0,-119.75"
   style="fill:none;stroke:#d74424;stroke-width:0.5;stroke-linecap:butt;stroke-linejoin:miter;stroke-miterlimit:4;stroke-opacity:1;stroke-dasharray:4, 2;stroke-dashoffset:0"
   id="path7507"
   inkscape:connector-curvature="0" /><path
   d="m 226.498,420 257.6661,0"
   style="fill:none;stroke:#231f20;stroke-width:1;stroke-linecap:butt;stroke-linejoin:miter;stroke-miterlimit:4;stroke-opacity:1;stroke-dasharray:none"
   id="path7509"
   inkscape:connector-curvature="0" /><path
   d="m 487.5273,420.9238 c -1.4882,0.4492 -2.455,0.8628 -3.6484,1.3428 l 0,-4.54 c 0.4277,0.2021 2.1602,0.8935 3.6484,1.3418 1.5918,0.4814 3.0372,0.8105 3.9727,0.9282 -0.9355,0.1177 -2.3809,0.4458 -3.9727,0.9272 z"
   style="fill:#231f20;fill-opacity:1;fill-rule:nonzero;stroke:none"
   id="path7511"
   inkscape:connector-curvature="0" /><path
   d="m 227.665,440.167 239.667,0"
   style="fill:none;stroke:#d74424;stroke-width:0.5;stroke-linecap:butt;stroke-linejoin:miter;stroke-miterlimit:4;stroke-opacity:1;stroke-dasharray:2, 2;stroke-dashoffset:0"
   id="path7513"
   inkscape:connector-curvature="0" /><path
   d="m 227.665,460.167 239.667,0"
   style="fill:none;stroke:#d74424;stroke-width:0.5;stroke-linecap:butt;stroke-linejoin:miter;stroke-miterlimit:4;stroke-opacity:1;stroke-dasharray:2, 2;stroke-dashoffset:0"
   id="path7515"
   inkscape:connector-curvature="0" /><path
   d="m 227.749,379.25 239.667,0"
   style="fill:none;stroke:#d74424;stroke-width:0.5;stroke-linecap:butt;stroke-linejoin:miter;stroke-miterlimit:4;stroke-opacity:1;stroke-dasharray:2, 2;stroke-dashoffset:0"
   id="path7517"
   inkscape:connector-curvature="0" /><path
   d="m 227.749,399.25 239.667,0"
   style="fill:none;stroke:#d74424;stroke-width:0.5;stroke-linecap:butt;stroke-linejoin:miter;stroke-miterlimit:4;stroke-opacity:1;stroke-dasharray:2, 2;stroke-dashoffset:0"
   id="path7519"
   inkscape:connector-curvature="0" /><path
   d="m 466.832,360.333 -240.6674,0 0,120.0005 240.6674,0 0,-120.0005 z"
   style="fill:none;stroke:#231f20;stroke-width:1;stroke-linecap:butt;stroke-linejoin:miter;stroke-miterlimit:4;stroke-opacity:1;stroke-dasharray:none"
   id="path7521"
   inkscape:connector-curvature="0" /><path
   d="m 409.0996,460.1909 c 0,-1.2749 -1.0312,-2.3076 -2.3047,-2.3076 -1.2734,0 -2.3105,1.0327 -2.3105,2.3076 0,1.2764 1.0371,2.3091 2.3105,2.3091 1.2735,0 2.3047,-1.0327 2.3047,-2.3091 z"
   style="fill:#231f20;fill-opacity:1;fill-rule:nonzero;stroke:#231f20;stroke-width:1;stroke-linecap:butt;stroke-linejoin:miter;stroke-miterlimit:4;stroke-opacity:1;stroke-dasharray:none"
   id="path7523"
   inkscape:connector-curvature="0" /><path
   d="m 172.7905,440.4375 c 0,-0.5654 -0.4321,-1.0239 -0.9673,-1.0239 -0.5327,0 -0.9668,0.4585 -0.9668,1.0239 0,0.5659 0.4341,1.0244 0.9668,1.0244 0.5352,0 0.9673,-0.4585 0.9673,-1.0244 z"
   style="fill:#231f20;fill-opacity:1;fill-rule:nonzero;stroke:#231f20;stroke-width:1;stroke-linecap:butt;stroke-linejoin:miter;stroke-miterlimit:4;stroke-opacity:1;stroke-dasharray:none"
   id="path7525"
   inkscape:connector-curvature="0" /><path
   d="m 177.5645,497.0996 0,-11.2998"
   style="fill:#231f20;fill-opacity:1;fill-rule:nonzero;stroke:#231f20;stroke-width:1;stroke-linecap:butt;stroke-linejoin:miter;stroke-miterlimit:4;stroke-opacity:1;stroke-dasharray:none"
   id="path7527"
   inkscape:connector-curvature="0" /><text
   transform="matrix(1,0,0,-1,133.4644,418.333)"
   id="text7529"><tspan
     style="font-size:12px;font-variant:normal;font-weight:normal;writing-mode:lr-tb;fill:#231f20;fill-opacity:1;fill-rule:nonzero;stroke:none;font-family:Symbol;-inkscape-font-specification:Symbol"
     x="0"
     y="0"
     id="tspan7531">λ</tspan></text>


<text
   transform="matrix(1,0,0,-1,159.8311,419.6665)"
   id="text7533"><tspan
     style="font-size:12px;font-variant:normal;font-weight:normal;writing-mode:lr-tb;fill:#231f20;fill-opacity:1;fill-rule:nonzero;stroke:none;font-family:Symbol;-inkscape-font-specification:Symbol"
     x="0"
     y="0"
     id="tspan7535">φ</tspan></text>




<text
   transform="matrix(1,0,0,-1,160.2998,440.2998)"
   id="text7541"><tspan
     style="font-size:12px;font-variant:normal;font-weight:normal;writing-mode:lr-tb;fill:#231f20;fill-opacity:1;fill-rule:nonzero;stroke:none;font-family:Myriad;-inkscape-font-specification:Myriad-Roman"
     x="0"
     y="0"
     id="tspan7543">P</tspan></text>


<text
   transform="matrix(1,0,0,-1,412.5,446.7998)"
   id="text7545"><tspan
     style="font-size:12px;font-variant:normal;font-weight:normal;writing-mode:lr-tb;fill:#231f20;fill-opacity:1;fill-rule:nonzero;stroke:none;font-family:Myriad;-inkscape-font-specification:Myriad-Roman"
     x="0 6.6719999 10.668 16.667999 19.667999 25.667999"
     y="0"
     sodipodi:role="line"
     id="tspan7547">P(x,y)</tspan></text>


<text
   transform="matrix(1,0,0,-1,347.7998,410.5996)"
   id="text7549"><tspan
     style="font-size:12px;font-variant:normal;font-weight:normal;writing-mode:lr-tb;fill:#231f20;fill-opacity:1;fill-rule:nonzero;stroke:none;font-family:Myriad;-inkscape-font-specification:Myriad-Roman"
     x="0"
     y="0"
     id="tspan7551">0</tspan></text>


<text
   transform="matrix(1,0,0,-1,476.1641,423)"
   id="text7553"><tspan
     style="font-size:12px;font-variant:normal;font-weight:normal;writing-mode:lr-tb;fill:#231f20;fill-opacity:1;fill-rule:nonzero;stroke:none;font-family:Myriad;-inkscape-font-specification:Myriad-Roman"
     x="0"
     y="0"
     id="tspan7555">x</tspan></text>


<text
   transform="matrix(1,0,0,-1,351.1641,495.6665)"
   id="text7557"><tspan
     style="font-size:12px;font-variant:normal;font-weight:normal;writing-mode:lr-tb;fill:#231f20;fill-opacity:1;fill-rule:nonzero;stroke:none;font-family:Myriad;-inkscape-font-specification:Myriad-Roman"
     x="0 6"
     y="0"
     sodipodi:role="line"
     id="tspan7559">y(</tspan></text>


<text
   transform="matrix(1,0,0,-1,361.1601,495.6665)"
   id="text7561"><tspan
     style="font-size:12px;font-variant:normal;font-weight:normal;writing-mode:lr-tb;fill:#231f20;fill-opacity:1;fill-rule:nonzero;stroke:none;font-family:Symbol;-inkscape-font-specification:Symbol"
     x="0"
     y="0"
     id="tspan7563">φ</tspan></text>


<text
   transform="matrix(1,0,0,-1,367.4121,495.6665)"
   id="text7565"><tspan
     style="font-size:12px;font-variant:normal;font-weight:normal;writing-mode:lr-tb;fill:#231f20;fill-opacity:1;fill-rule:nonzero;stroke:none;font-family:Myriad;-inkscape-font-specification:Myriad-Roman"
     x="0"
     y="0"
     id="tspan7567">)</tspan></text>


<text
   transform="matrix(1,0,0,-1,139.1646,401.5059)"
   id="text7569"><tspan
     style="font-size:12px;font-variant:normal;font-weight:normal;writing-mode:lr-tb;fill:#231f20;fill-opacity:1;fill-rule:nonzero;stroke:none;font-family:Myriad;-inkscape-font-specification:Myriad-Roman"
     x="0"
     y="0"
     id="tspan7571">x</tspan></text>


<text
   transform="matrix(1,0,0,-1,214.8311,347.8398)"
   id="text7573"><tspan
     style="font-size:12px;font-variant:normal;font-weight:normal;writing-mode:lr-tb;fill:#231f20;fill-opacity:1;fill-rule:nonzero;stroke:none;font-family:Myriad;-inkscape-font-specification:Myriad-Roman"
     x="0"
     y="0"
     id="tspan7575">x</tspan></text>


<text
   transform="matrix(1,0,0,-1,220.8311,347.8398)"
   id="text7577"><tspan
     style="font-size:12px;font-variant:normal;font-weight:normal;writing-mode:lr-tb;fill:#231f20;fill-opacity:1;fill-rule:nonzero;stroke:none;font-family:Symbol;-inkscape-font-specification:Symbol"
     x="0 6.5879998"
     y="0"
     sodipodi:role="line"
     id="tspan7579">=−</tspan></text>


<path
   d="m 155.0396,419.5 4.5,1.125"
   style="fill:none;stroke:#231f20;stroke-width:1;stroke-linecap:butt;stroke-linejoin:miter;stroke-miterlimit:4;stroke-opacity:1;stroke-dasharray:none"
   id="path7581"
   inkscape:connector-curvature="0" /><path
   d="m 146.7896,417.125 -7.75,3.125"
   style="fill:none;stroke:#231f20;stroke-width:1;stroke-linecap:butt;stroke-linejoin:miter;stroke-miterlimit:4;stroke-opacity:1;stroke-dasharray:none"
   id="path7583"
   inkscape:connector-curvature="0" /><text
   transform="matrix(1,0,0,-1,89.1646,392.0078)"
   id="text7585"><tspan
     style="font-size:12px;font-variant:normal;font-weight:normal;writing-mode:lr-tb;fill:#231f20;fill-opacity:1;fill-rule:nonzero;stroke:none;font-family:Symbol;-inkscape-font-specification:Symbol"
     x="0 6.5879998 13.176"
     y="0"
     sodipodi:role="line"
     id="tspan7587">λ=0</tspan></text>


<text
   transform="matrix(1,0,0,-1,169.1646,500.5)"
   id="text7589"><tspan
     style="font-size:12px;font-variant:normal;font-weight:normal;writing-mode:lr-tb;fill:#231f20;fill-opacity:1;fill-rule:nonzero;stroke:none;font-family:Symbol;-inkscape-font-specification:Symbol"
     x="0 6.5879998 13.176"
     y="0"
     sodipodi:role="line"
     id="tspan7591">λ=π</tspan></text>


<text
   transform="matrix(1,0,0,-1,129.1646,487)"
   id="text7593"><tspan
     style="font-size:12px;font-variant:normal;font-weight:normal;writing-mode:lr-tb;fill:#231f20;fill-opacity:1;fill-rule:nonzero;stroke:none;font-family:Myriad;-inkscape-font-specification:Myriad-Roman"
     x="0"
     y="0"
     id="tspan7595">y</tspan></text>


<text
   transform="matrix(1,0,0,-1,232.2998,422)"
   id="text7597"><tspan
     style="font-size:11px;font-variant:normal;font-weight:normal;writing-mode:lr-tb;fill:#231f20;fill-opacity:1;fill-rule:nonzero;stroke:none;font-family:Myriad;-inkscape-font-specification:Myriad-Roman"
     x="0 3.0580001 6.7210002 12.221 17.105 19.855 24.134001 29.018 33.902 36.959999 41.844002 44.594002 50.094002 55.594002 58.344002 63.228001 68.727997 74.227997 79.112 82.169998 87.669998"
     y="0"
     sodipodi:role="line"
     id="tspan7599">true scale on equator</tspan></text>


<text
   transform="matrix(1,0,0,-1,150.2998,461.7998)"
   id="text7601"><tspan
     style="font-size:12px;font-variant:normal;font-weight:normal;writing-mode:lr-tb;fill:#231f20;fill-opacity:1;fill-rule:nonzero;stroke:none;font-family:Myriad;-inkscape-font-specification:Myriad-Roman"
     x="0"
     y="0"
     id="tspan7603">N</tspan></text>


<text
   transform="matrix(1,0,0,-1,148.4941,370.6719)"
   id="text7605"><tspan
     style="font-size:12px;font-variant:normal;font-weight:normal;writing-mode:lr-tb;fill:#231f20;fill-opacity:1;fill-rule:nonzero;stroke:none;font-family:Myriad;-inkscape-font-specification:Myriad-Roman"
     x="0"
     y="0"
     id="tspan7607">S</tspan></text>


<path
   d="m 150.1646,489.4995 0,-9.6997"
   style="fill:#231f20;fill-opacity:1;fill-rule:nonzero;stroke:#231f20;stroke-width:1;stroke-linecap:butt;stroke-linejoin:miter;stroke-miterlimit:4;stroke-opacity:1;stroke-dasharray:none"
   id="path7609"
   inkscape:connector-curvature="0" /><text
   transform="matrix(1,0,0,-1,333.7998,346.7002)"
   id="text7611"><tspan
     style="font-size:11px;font-variant:normal;font-weight:normal;writing-mode:lr-tb;fill:#231f20;fill-opacity:1;fill-rule:nonzero;stroke:none;font-family:Myriad;-inkscape-font-specification:Myriad-Roman"
     x="0 4.8839998 9.7679996 15.268 18.326 21.989 26.872999"
     y="0"
     sodipodi:role="line"
     id="tspan7613"
     dx="-0.82642466 0 0 0 0 0 0.82642502"
     dy="0 0 0 0 0 0 -1.3447229e-008">central</tspan></text>


<text
   transform="matrix(1,0,0,-1,330.1406,336.2139)"
   id="text7615"><tspan
     style="font-size:11px;font-variant:normal;font-weight:normal;writing-mode:lr-tb;fill:#231f20;fill-opacity:1;fill-rule:nonzero;stroke:none;font-family:Myriad;-inkscape-font-specification:Myriad-Roman"
     x="0 8.5579996 13.442 17.105 20.163 25.663 28.721001 33.605"
     y="0"
     sodipodi:role="line"
     id="tspan7617"
     dx="0 0 0 0 0 0.41321239">meridian</tspan></text>


<path
   d="m 346.4141,360.25 0,-5.75"
   style="fill:none;stroke:#231f20;stroke-width:1;stroke-linecap:butt;stroke-linejoin:miter;stroke-miterlimit:4;stroke-opacity:1;stroke-dasharray:none"
   id="path7619"
   inkscape:connector-curvature="0" /><path
   d="m 346.4141,334.25 0,-9.75"
   style="fill:none;stroke:#231f20;stroke-width:1;stroke-linecap:butt;stroke-linejoin:miter;stroke-miterlimit:4;stroke-opacity:1;stroke-dasharray:none"
   id="path7621"
   inkscape:connector-curvature="0" /><text
   transform="matrix(1,0,0,-1,211.2002,481.7002)"
   id="text7623"><tspan
     style="font-size:11px;font-variant:normal;font-weight:normal;writing-mode:lr-tb;fill:#231f20;fill-opacity:1;fill-rule:nonzero;stroke:none;font-family:Myriad;-inkscape-font-specification:Myriad-Roman"
     x="0 5.5 11"
     y="0"
     sodipodi:role="line"
     id="tspan7625"
     dx="0 0 0 1.2396375">180W</tspan></text>



<text
   transform="matrix(1,0,0,-1,448.4004,482)"
   id="text7633"><tspan
     style="font-size:11px;font-variant:normal;font-weight:normal;writing-mode:lr-tb;fill:#231f20;fill-opacity:1;fill-rule:nonzero;stroke:none;font-family:Myriad;-inkscape-font-specification:Myriad-Roman"
     x="0 5.5 11"
     y="0"
     sodipodi:role="line"
     id="tspan7635"
     dx="0 0 0 0.82642502">180E</tspan></text>





<text
   transform="matrix(1,0,0,-1,233.8999,348.0996)"
   id="text7647"><tspan
     style="font-size:11px;font-variant:normal;font-weight:normal;writing-mode:lr-tb;fill:#231f20;fill-opacity:1;fill-rule:nonzero;stroke:none;font-family:Symbol;-inkscape-font-specification:Symbol"
     x="0"
     y="0"
     id="tspan7649">π</tspan></text>


<text
   transform="matrix(1,0,0,-1,467.1016,347.7002)"
   id="text7651"><tspan
     style="font-size:11px;font-variant:normal;font-weight:normal;writing-mode:lr-tb;fill:#231f20;fill-opacity:1;fill-rule:nonzero;stroke:none;font-family:Symbol;-inkscape-font-specification:Symbol"
     x="0"
     y="0"
     id="tspan7653">π</tspan></text>


<text
   transform="matrix(1,0,0,-1,453.7998,347.7998)"
   id="text7655"><tspan
     style="font-size:12px;font-variant:normal;font-weight:normal;writing-mode:lr-tb;fill:#231f20;fill-opacity:1;fill-rule:nonzero;stroke:none;font-family:Myriad;-inkscape-font-specification:Myriad-Roman"
     x="0"
     y="0"
     id="tspan7657">x</tspan></text>


<text
   transform="scale(1,-1)"
   id="text7659"
   x="459.91507"
   y="-347.24124"
   style="font-size:9.92921925px"><tspan
     style="font-size:9.92921925px;font-variant:normal;font-weight:normal;writing-mode:lr-tb;fill:#231f20;fill-opacity:1;fill-rule:nonzero;stroke:none;font-family:Symbol;-inkscape-font-specification:Symbol"
     x="459.91507"
     y="-347.24124"
     id="tspan7661">=</tspan></text>




<path
   d="m 420.0576,453.9458 c -0.002,-0.1382 -0.1318,-0.248 -0.291,-0.2456 -0.1582,0.002 -0.2842,0.1162 -0.2822,0.2544 0.002,0.1382 0.1318,0.248 0.29,0.2456 0.1592,-0.002 0.2852,-0.1162 0.2832,-0.2544 z"
   style="fill:#231f20;fill-opacity:1;fill-rule:nonzero;stroke:none"
   id="path7667"
   inkscape:connector-curvature="0" /><path
   d="m 420.333,456.3042 c 0,-0.2417 -0.1953,-0.4375 -0.4375,-0.4375 -0.2422,0 -0.4375,0.1958 -0.4375,0.4375 0,0.2417 0.1953,0.4375 0.4375,0.4375 0.2422,0 0.4375,-0.1958 0.4375,-0.4375 z"
   style="fill:#231f20;fill-opacity:1;fill-rule:nonzero;stroke:none"
   id="path7669"
   inkscape:connector-curvature="0" /><path
   d="m 419.5,456.4087 0,-2.4585 0.583,0 0.25,2.3335"
   style="fill:#231f20;fill-opacity:1;fill-rule:nonzero;stroke:none"
   id="path7671"
   inkscape:connector-curvature="0" /><path
   d="m 172.7905,440.4375 c 0,-1.2749 -1.0312,-2.3076 -2.3047,-2.3076 -1.2734,0 -2.3105,1.0327 -2.3105,2.3076 0,1.2764 1.0371,2.3091 2.3105,2.3091 1.2735,0 2.3047,-1.0327 2.3047,-2.3091 z"
   style="fill:#231f20;fill-opacity:1;fill-rule:nonzero;stroke:#231f20;stroke-width:1;stroke-linecap:butt;stroke-linejoin:miter;stroke-miterlimit:4;stroke-opacity:1;stroke-dasharray:none"
   id="path7673"
   inkscape:connector-curvature="0" /><path
   d="m 176.9077,464.0996 c 0,-1.2749 -1.0312,-2.3076 -2.3047,-2.3076 -1.2734,0 -2.3105,1.0327 -2.3105,2.3076 0,1.2764 1.0371,2.3091 2.3105,2.3091 1.2735,0 2.3047,-1.0327 2.3047,-2.3091 z"
   style="fill:#231f20;fill-opacity:1;fill-rule:nonzero;stroke:#231f20;stroke-width:1;stroke-linecap:butt;stroke-linejoin:miter;stroke-miterlimit:4;stroke-opacity:1;stroke-dasharray:none"
   id="path7675"
   inkscape:connector-curvature="0" /><text
   transform="matrix(1,0,0,-1,177.5,460.7002)"
   id="text7677"><tspan
     style="font-size:12px;font-variant:normal;font-weight:normal;writing-mode:lr-tb;fill:#231f20;fill-opacity:1;fill-rule:nonzero;stroke:none;font-family:Myriad;-inkscape-font-specification:Myriad-Roman"
     x="0 6.6719999"
     y="0"
     sodipodi:role="line"
     id="tspan7679">P'</tspan></text>


<path
   d="m 180.2002,445.2603 c 0,-4.2227 -13.5566,-7.6456 -30.2793,-7.6456 -16.7231,0 -30.2891,3.5733 -30.2891,7.7959"
   style="fill:none;stroke:#231f20;stroke-width:1;stroke-linecap:butt;stroke-linejoin:miter;stroke-miterlimit:4;stroke-opacity:1;stroke-dasharray:2, 2;stroke-dashoffset:0"
   id="path7681"
   inkscape:connector-curvature="0" /><path
   d="m 119.6411,445.2603 c 0,4.2221 13.5567,7.646 30.2798,7.646 16.7227,0 30.2793,-3.4239 30.2793,-7.646"
   style="fill:none;stroke:#231f20;stroke-width:1;stroke-linecap:butt;stroke-linejoin:miter;stroke-miterlimit:4;stroke-opacity:1;stroke-dasharray:2, 2;stroke-dashoffset:0"
   id="path7683"
   inkscape:connector-curvature="0" /><path
   d="m 406.748,479.75 0,-118.9502"
   style="fill:none;stroke:#231f20;stroke-width:2;stroke-linecap:butt;stroke-linejoin:miter;stroke-miterlimit:4;stroke-opacity:1;stroke-dasharray:none"
   id="path7693"
   inkscape:connector-curvature="0" /><path
   d="m 225.7002,460.2002 241.7998,0"
   style="fill:none;stroke:#231f20;stroke-width:2;stroke-linecap:butt;stroke-linejoin:miter;stroke-miterlimit:4;stroke-opacity:1;stroke-dasharray:none"
   id="path7695"
   inkscape:connector-curvature="0" /><text
   transform="matrix(1,0,0,-1,232.7998,464.2998)"
   id="text7697"><tspan
     style="font-size:11px;font-variant:normal;font-weight:normal;writing-mode:lr-tb;fill:#231f20;fill-opacity:1;fill-rule:nonzero;stroke:none;font-family:Myriad;-inkscape-font-specification:Myriad-Roman"
     x="0 5.5 10.384 14.047 18.931 21.989 25.047001 29.931 32.988998 35.738998 38.797001 44.297001 47.959999 53.459999 58.959999 64.459999 69.959999 72.709999"
     y="0"
     sodipodi:role="line"
     id="tspan7699"
     dx="-0.41321248 -0.41321251 0.41321251 0 0 0 -0.41321251 0.41321251">parallel through P</tspan></text>


<text
   transform="matrix(1,0,0,-1,387,346.9004)"
   id="text7701"><tspan
     style="font-size:11px;font-variant:normal;font-weight:normal;writing-mode:lr-tb;fill:#231f20;fill-opacity:1;fill-rule:nonzero;stroke:none;font-family:Myriad;-inkscape-font-specification:Myriad-Roman"
     x="0 8.5579996 13.442 17.105 20.163 25.663 28.721001 33.605"
     y="0"
     sodipodi:role="line"
     id="tspan7703">meridian</tspan></text>


<text
   transform="matrix(1,0,0,-1,384.2002,336.2002)"
   id="text7705"><tspan
     style="font-size:11px;font-variant:normal;font-weight:normal;writing-mode:lr-tb;fill:#231f20;fill-opacity:1;fill-rule:nonzero;stroke:none;font-family:Myriad;-inkscape-font-specification:Myriad-Roman"
     x="0 3.0580001 8.5579996 12.221 17.721001 23.221001 28.721001 34.221001 36.971001"
     y="0"
     sodipodi:role="line"
     id="tspan7707">through P</tspan></text>


<text
   transform="matrix(1,0,0,-1,141.5869,489.8999)"
   id="text7709"><tspan
     style="font-size:11px;font-variant:normal;font-weight:normal;writing-mode:lr-tb;fill:#231f20;fill-opacity:1;fill-rule:nonzero;stroke:none;font-family:Myriad;-inkscape-font-specification:Myriad-Roman"
     x="0 4.8839998 10.384 13.442"
     y="0"
     sodipodi:role="line"
     id="tspan7711">axis</tspan></text>


<text
   transform="matrix(1,0,0,-1,127.459,335.4004)"
   id="text7713"><tspan
     style="font-size:11px;font-variant:normal;font-weight:normal;writing-mode:lr-tb;fill:#231f20;fill-opacity:1;fill-rule:nonzero;stroke:none;font-family:Myriad;-inkscape-font-specification:Myriad-Roman"
     x="0 4.8839998 9.7679996 15.268 18.326 21.989 26.872999"
     y="0"
     sodipodi:role="line"
     id="tspan7715">central</tspan></text>


<text
   transform="matrix(1,0,0,-1,123.7998,324.9141)"
   id="text7717"><tspan
     style="font-size:11px;font-variant:normal;font-weight:normal;writing-mode:lr-tb;fill:#231f20;fill-opacity:1;fill-rule:nonzero;stroke:none;font-family:Myriad;-inkscape-font-specification:Myriad-Roman"
     x="0 8.5579996 13.442 17.105 20.163 25.663 28.721001 33.605"
     y="0"
     sodipodi:role="line"
     id="tspan7719">meridian</tspan></text>


<flowRoot
   xml:space="preserve"
   id="flowRoot2524"
   style="font-size:15px;font-style:normal;font-variant:normal;font-weight:normal;font-stretch:normal;text-align:start;line-height:125%;writing-mode:lr-tb;text-anchor:start;fill:#000000;fill-opacity:1;stroke:none;font-family:DejaVu Sans;-inkscape-font-specification:DejaVu Sans"><flowRegion
     id="flowRegion2526"><rect
       id="rect2528"
       width="18.594563"
       height="44.936859"
       x="341.93335"
       y="198.3053" /></flowRegion><flowPara
     id="flowPara2530" /></flowRoot><g
   transform="scale(1,-1)"
   style="font-size:11.19999981px;font-style:normal;font-variant:normal;font-weight:normal;font-stretch:normal;line-height:125%;letter-spacing:0px;word-spacing:0px;fill:#000000;fill-opacity:1;stroke:none;font-family:Arial;-inkscape-font-specification:Arial"
   id="text7080"><path
     d="m 249.40527,-347.91348 -1.40547,0 -2.72344,-3.2375 -1.52578,0 0,3.2375 -1.08281,0 0,-8.14297 2.28047,0 c 0.49218,10e-6 0.90234,0.0319 1.23047,0.0957 0.32812,0.0638 0.62343,0.17774 0.88594,0.3418 0.2953,0.18594 0.5259,0.42019 0.69179,0.70273 0.16588,0.28256 0.24882,0.64076 0.24883,1.07461 -1e-5,0.58699 -0.14766,1.07826 -0.44297,1.47383 -0.29532,0.39558 -0.70183,0.69362 -1.21953,0.89414 z m -2.53203,-5.85157 c -1e-5,-0.23332 -0.041,-0.44022 -0.12305,-0.6207 -0.082,-0.18046 -0.21784,-0.33267 -0.40742,-0.45664 -0.15678,-0.10572 -0.34271,-0.17955 -0.55781,-0.22148 -0.21511,-0.0419 -0.4685,-0.0629 -0.76016,-0.0629 l -1.27422,0 0,3.07343 1.09375,0 c 0.34271,10e-6 0.64167,-0.0301 0.89688,-0.0902 0.2552,-0.0602 0.47213,-0.17226 0.65078,-0.33633 0.16406,-0.15312 0.28528,-0.32903 0.36367,-0.52773 0.0784,-0.1987 0.11757,-0.45117 0.11758,-0.75743 z"
     style="font-family:Verdana;-inkscape-font-specification:Verdana"
     id="path7085"
     inkscape:connector-curvature="0" /></g><g
   transform="matrix(1,0,0,-1,-80.906804,9.6173678)"
   style="font-size:11.19999981px;font-style:normal;font-variant:normal;font-weight:normal;font-stretch:normal;line-height:125%;letter-spacing:0px;word-spacing:0px;fill:#000000;fill-opacity:1;stroke:none;font-family:Arial;-inkscape-font-specification:Arial"
   id="text7080-2"><path
     inkscape:connector-curvature="0"
     d="m 249.40527,-347.91348 -1.40547,0 -2.72344,-3.2375 -1.52578,0 0,3.2375 -1.08281,0 0,-8.14297 2.28047,0 c 0.49218,10e-6 0.90234,0.0319 1.23047,0.0957 0.32812,0.0638 0.62343,0.17774 0.88594,0.3418 0.2953,0.18594 0.5259,0.42019 0.69179,0.70273 0.16588,0.28256 0.24882,0.64076 0.24883,1.07461 -1e-5,0.58699 -0.14766,1.07826 -0.44297,1.47383 -0.29532,0.39558 -0.70183,0.69362 -1.21953,0.89414 z m -2.53203,-5.85157 c -1e-5,-0.23332 -0.041,-0.44022 -0.12305,-0.6207 -0.082,-0.18046 -0.21784,-0.33267 -0.40742,-0.45664 -0.15678,-0.10572 -0.34271,-0.17955 -0.55781,-0.22148 -0.21511,-0.0419 -0.4685,-0.0629 -0.76016,-0.0629 l -1.27422,0 0,3.07343 1.09375,0 c 0.34271,10e-6 0.64167,-0.0301 0.89688,-0.0902 0.2552,-0.0602 0.47213,-0.17226 0.65078,-0.33633 0.16406,-0.15312 0.28528,-0.32903 0.36367,-0.52773 0.0784,-0.1987 0.11757,-0.45117 0.11758,-0.75743 z"
     style="font-family:Verdana;-inkscape-font-specification:Verdana"
     id="path7085-7" /></g><g
   transform="matrix(1,0,0,-1,233.17794,-0.29973194)"
   style="font-size:11.19999981px;font-style:normal;font-variant:normal;font-weight:normal;font-stretch:normal;line-height:125%;letter-spacing:0px;word-spacing:0px;fill:#000000;fill-opacity:1;stroke:none;font-family:Arial;-inkscape-font-specification:Arial"
   id="text7080-6"><path
     inkscape:connector-curvature="0"
     d="m 249.40527,-347.91348 -1.40547,0 -2.72344,-3.2375 -1.52578,0 0,3.2375 -1.08281,0 0,-8.14297 2.28047,0 c 0.49218,10e-6 0.90234,0.0319 1.23047,0.0957 0.32812,0.0638 0.62343,0.17774 0.88594,0.3418 0.2953,0.18594 0.5259,0.42019 0.69179,0.70273 0.16588,0.28256 0.24882,0.64076 0.24883,1.07461 -1e-5,0.58699 -0.14766,1.07826 -0.44297,1.47383 -0.29532,0.39558 -0.70183,0.69362 -1.21953,0.89414 z m -2.53203,-5.85157 c -1e-5,-0.23332 -0.041,-0.44022 -0.12305,-0.6207 -0.082,-0.18046 -0.21784,-0.33267 -0.40742,-0.45664 -0.15678,-0.10572 -0.34271,-0.17955 -0.55781,-0.22148 -0.21511,-0.0419 -0.4685,-0.0629 -0.76016,-0.0629 l -1.27422,0 0,3.07343 1.09375,0 c 0.34271,10e-6 0.64167,-0.0301 0.89688,-0.0902 0.2552,-0.0602 0.47213,-0.17226 0.65078,-0.33633 0.16406,-0.15312 0.28528,-0.32903 0.36367,-0.52773 0.0784,-0.1987 0.11757,-0.45117 0.11758,-0.75743 z"
     style="font-family:Verdana;-inkscape-font-specification:Verdana"
     id="path7085-1" /></g></g></svg>